# xmcd CD database file
#
# Track frame offsets:
#	150
#	18337
#	24952
#	43135
#	54202
#	64690
#	68135
#	86577
#	96240
#	106472
#	120187
#	135995
#	148182
#	170802
#	200655
#
# Disc length: 3610 seconds
#
# Revision: 0
# Processed by: cddbd v1.5PL3 Copyright (c) Steve Scherf et al.
# Submitted via: CDex 1.51
#
DISCID=cb0e180f
DTITLE=細野春臣 - ETHNIC SOUND SELECTION Vol.8 律動
DYEAR=1900
DGENRE=Trance
TTITLE0=ショナ族ムビラ(ジンバブエ)
TTITLE1=マンゴ・タイム(ジャマイカ)
TTITLE2=宮廷ガムラン（ジャワ）
TTITLE3=DZILのデュエット（アフリカ）
TTITLE4=イメネ・ツキ（クック諸島）
TTITLE5=花火（フィジー）
TTITLE6=グルマンチェ族の賛歌（アフリカ）
TTITLE7=まだら牛（メキシコ）
TTITLE8=座舞踊（フィジー）
TTITLE9=リンボ（トリニダード）
TTITLE10=クントゥギ・ソロ（ニジェール）
TTITLE11=サン・アントニオの子守唄（ブラジル）
TTITLE12=ハイドゥク（ブルガリア）
TTITLE13=水夫の踊り(ギリシャ)
TTITLE14=仮小屋（ジンバブエ）
EXTD=
EXTT0=
EXTT1=
EXTT2=
EXTT3=
EXTT4=
EXTT5=
EXTT6=
EXTT7=
EXTT8=
EXTT9=
EXTT10=
EXTT11=
EXTT12=
EXTT13=
EXTT14=
PLAYORDER=
